<svg xmlns="http://www.w3.org/2000/svg" version="1.1" xmlns:xlink="http://www.w3.org/1999/xlink" xmlns:svgjs="http://svgjs.com/svgjs" width="1000" height="1000"><rect width="1000" height="1000" rx="500" ry="500" fill="#000000"></rect><g transform="matrix(1.3671875,0,0,1.3671875,162.90695774555206,150)"><svg xmlns="http://www.w3.org/2000/svg" version="1.1" xmlns:xlink="http://www.w3.org/1999/xlink" xmlns:svgjs="http://svgjs.com/svgjs" width="512" height="512"><svg id="egwQMOFpxID1" xmlns="http://www.w3.org/2000/svg" xmlns:xlink="http://www.w3.org/1999/xlink" viewBox="0 0 512 512" shape-rendering="geometricPrecision" text-rendering="geometricPrecision"><path d="M6,256C6,117.92881,117.92881,6,256,6c69.33153,0,132.07131,28.22262,177.35755,73.80606L363.47382,151.3606C336.22544,123.3788,298.14224,106,256,106c-82.84271,0-150,67.15729-150,150h.00001c0,82.84271,67.15729,150,150,150c42.49442,0,80.86168-17.67048,108.15469-46.06436l71.54357,69.87069C390.24583,476.78982,326.53412,506,256,506C117.92881,506,6,394.07119,6,256Z" fill="#fff" stroke-width="0"></path><ellipse rx="100" ry="100" transform="translate(256 256)" fill="#3730a3" stroke-width="0"></ellipse></svg></svg></g></svg>